<svg id="calendar" xmlns="http://www.w3.org/2000/svg" width="315" height="315" viewBox="0 0 315 315">
  <g id="Grupo_94" data-name="Grupo 94">
    <g id="Grupo_93" data-name="Grupo 93">
      <path id="Trazado_88" data-name="Trazado 88" d="M278.086,24.609H263.32V0H238.711V24.609H76.289V0H51.68V24.609H36.914A36.956,36.956,0,0,0,0,61.523V278.086A36.956,36.956,0,0,0,36.914,315H278.086A36.956,36.956,0,0,0,315,278.086V61.523A36.956,36.956,0,0,0,278.086,24.609Zm12.3,253.477a12.319,12.319,0,0,1-12.3,12.3H36.914a12.319,12.319,0,0,1-12.3-12.3V115.664H290.391Zm0-187.031H24.609V61.523a12.319,12.319,0,0,1,12.3-12.3H51.68V73.828H76.289V49.219H238.711V73.828H263.32V49.219h14.766a12.319,12.319,0,0,1,12.3,12.3Z" fill="#2d2f90"/>
    </g>
  </g>
  <g id="Grupo_96" data-name="Grupo 96" transform="translate(46.758 141.504)">
    <g id="Grupo_95" data-name="Grupo 95">
      <rect id="Rectángulo_70" data-name="Rectángulo 70" width="24" height="24" transform="translate(0.242 0.496)" fill="#2d2f90"/>
    </g>
  </g>
  <g id="Grupo_98" data-name="Grupo 98" transform="translate(95.977 141.504)">
    <g id="Grupo_97" data-name="Grupo 97">
      <rect id="Rectángulo_71" data-name="Rectángulo 71" width="25" height="24" transform="translate(0.023 0.496)" fill="#2d2f90"/>
    </g>
  </g>
  <g id="Grupo_100" data-name="Grupo 100" transform="translate(145.195 141.504)">
    <g id="Grupo_99" data-name="Grupo 99">
      <rect id="Rectángulo_72" data-name="Rectángulo 72" width="25" height="24" transform="translate(-0.195 0.496)" fill="#2d2f90"/>
    </g>
  </g>
  <g id="Grupo_102" data-name="Grupo 102" transform="translate(194.414 141.504)">
    <g id="Grupo_101" data-name="Grupo 101">
      <rect id="Rectángulo_73" data-name="Rectángulo 73" width="25" height="24" transform="translate(-0.414 0.496)" fill="#2d2f90"/>
    </g>
  </g>
  <g id="Grupo_104" data-name="Grupo 104" transform="translate(243.633 141.504)">
    <g id="Grupo_103" data-name="Grupo 103">
      <rect id="Rectángulo_74" data-name="Rectángulo 74" width="24" height="24" transform="translate(0.367 0.496)" fill="#2d2f90"/>
    </g>
  </g>
  <g id="Grupo_106" data-name="Grupo 106" transform="translate(46.758 190.723)">
    <g id="Grupo_105" data-name="Grupo 105">
      <rect id="Rectángulo_75" data-name="Rectángulo 75" width="24" height="24" transform="translate(0.242 0.277)" fill="#2d2f90"/>
    </g>
  </g>
  <g id="Grupo_108" data-name="Grupo 108" transform="translate(95.977 190.723)">
    <g id="Grupo_107" data-name="Grupo 107">
      <rect id="Rectángulo_76" data-name="Rectángulo 76" width="25" height="24" transform="translate(0.023 0.277)" fill="#2d2f90"/>
    </g>
  </g>
  <g id="Grupo_110" data-name="Grupo 110" transform="translate(145.195 190.723)">
    <g id="Grupo_109" data-name="Grupo 109">
      <rect id="Rectángulo_77" data-name="Rectángulo 77" width="25" height="24" transform="translate(-0.195 0.277)" fill="#2d2f90"/>
    </g>
  </g>
  <g id="Grupo_112" data-name="Grupo 112" transform="translate(194.414 190.723)">
    <g id="Grupo_111" data-name="Grupo 111">
      <rect id="Rectángulo_78" data-name="Rectángulo 78" width="25" height="24" transform="translate(-0.414 0.277)" fill="#2d2f90"/>
    </g>
  </g>
  <g id="Grupo_114" data-name="Grupo 114" transform="translate(46.758 239.941)">
    <g id="Grupo_113" data-name="Grupo 113">
      <rect id="Rectángulo_79" data-name="Rectángulo 79" width="24" height="25" transform="translate(0.242 0.059)" fill="#2d2f90"/>
    </g>
  </g>
  <g id="Grupo_116" data-name="Grupo 116" transform="translate(95.977 239.941)">
    <g id="Grupo_115" data-name="Grupo 115">
      <rect id="Rectángulo_80" data-name="Rectángulo 80" width="25" height="25" transform="translate(0.023 0.059)" fill="#2d2f90"/>
    </g>
  </g>
  <g id="Grupo_118" data-name="Grupo 118" transform="translate(145.195 239.941)">
    <g id="Grupo_117" data-name="Grupo 117">
      <rect id="Rectángulo_81" data-name="Rectángulo 81" width="25" height="25" transform="translate(-0.195 0.059)" fill="#2d2f90"/>
    </g>
  </g>
  <g id="Grupo_120" data-name="Grupo 120" transform="translate(194.414 239.941)">
    <g id="Grupo_119" data-name="Grupo 119">
      <rect id="Rectángulo_82" data-name="Rectángulo 82" width="25" height="25" transform="translate(-0.414 0.059)" fill="#2d2f90"/>
    </g>
  </g>
  <g id="Grupo_122" data-name="Grupo 122" transform="translate(243.633 190.723)">
    <g id="Grupo_121" data-name="Grupo 121">
      <rect id="Rectángulo_83" data-name="Rectángulo 83" width="24" height="24" transform="translate(0.367 0.277)" fill="#2d2f90"/>
    </g>
  </g>
</svg>
