<svg xmlns="http://www.w3.org/2000/svg" width="43.325" height="41.671" viewBox="0 0 43.325 41.671">
  <g id="Grupo_8" data-name="Grupo 8" transform="translate(-960 -1121)">
    <g id="down-arrow" transform="translate(960 1121)">
      <g id="Grupo_5" data-name="Grupo 5" transform="translate(0 25.475)">
        <g id="Grupo_4" data-name="Grupo 4">
          <path id="Trazado_1" data-name="Trazado 1" d="M39.941,313v11.313a1.663,1.663,0,0,1-1.692,1.628H5.077a1.663,1.663,0,0,1-1.692-1.628V313H0v11.313A4.989,4.989,0,0,0,5.077,329.2H38.248a4.989,4.989,0,0,0,5.077-4.883V313Z" transform="translate(0 -313)" fill="#6b6b6b"/>
        </g>
      </g>
      <g id="Grupo_7" data-name="Grupo 7" transform="translate(11.146)">
        <g id="Grupo_6" data-name="Grupo 6">
          <path id="Trazado_2" data-name="Trazado 2" d="M150.356,19.185l-6.431,6.186V0h-3.385V25.37l-6.431-6.186-2.393,2.3L142.233,31.6,152.75,21.487Z" transform="translate(-131.716)" fill="#6b6b6b"/>
        </g>
      </g>
    </g>
  </g>
</svg>
