<svg id="Grupo_92" data-name="Grupo 92" xmlns="http://www.w3.org/2000/svg" xmlns:xlink="http://www.w3.org/1999/xlink" width="157.78" height="149.273" viewBox="0 0 157.78 149.273">
  <defs>
    <clipPath id="clip-path">
      <path id="Trazado_47" data-name="Trazado 47" d="M139.55-263.11A34.021,34.021,0,0,1,173.556-229.1,34.021,34.021,0,0,1,139.55-195.1,34.021,34.021,0,0,1,105.545-229.1,34.021,34.021,0,0,1,139.55-263.11Z" transform="translate(-105.545 263.11)" fill="none" clip-rule="evenodd"/>
    </clipPath>
    <clipPath id="clip-path-2">
      <path id="Trazado_82" data-name="Trazado 82" d="M214.415-232.852a128.316,128.316,0,0,0-7.28-18.042s-4.9-4.3-1.52-6.8,7.27,2.192,7.27,2.192c16.927.378,22.741,20.914,22.741,20.914.04.172.078.342.115.511,3.242,1.809,8.668,4.958,7.876,12.857,0,0-.322,1.846-1.624,1.475-2.4-.681-2.305-1.838-5.38-1.475-2.219,21.83-24.158,28.921-24.384,28.742-4.467,14.083-8.708,8.157-8.708,8.157v-10.653s-11.436-2.517-9.741-6.2a14.452,14.452,0,0,1,14.231-1.027c9.416-1.981,10.5-11.4,8.707-21.436-2.031,1.544-4.112,4.147-5.474,5.384-.819.743-1.651-.577-1.651-.577C207.9-227.106,211.831-231.147,214.415-232.852Z" transform="translate(-193.608 258.432)" fill="none" clip-rule="evenodd"/>
    </clipPath>
    <clipPath id="clip-path-3">
      <path id="Trazado_87" data-name="Trazado 87" d="M94.185-232.852a128.317,128.317,0,0,1,7.28-18.042s4.9-4.3,1.52-6.8-7.27,2.192-7.27,2.192c-16.927.378-22.742,20.914-22.742,20.914-.039.172-.078.342-.115.511-3.242,1.809-8.668,4.958-7.876,12.857,0,0,.322,1.846,1.624,1.475,2.4-.681,2.305-1.838,5.381-1.475,2.219,21.83,24.158,28.921,24.384,28.742,4.467,14.083,8.708,8.157,8.708,8.157v-10.653s11.436-2.517,9.741-6.2a14.452,14.452,0,0,0-14.231-1.027c-9.416-1.981-10.5-11.4-8.707-21.436,2.031,1.544,4.112,4.147,5.474,5.384.819.743,1.651-.577,1.651-.577C100.7-227.106,96.768-231.147,94.185-232.852Z" transform="translate(-64.904 258.432)" fill="none" clip-rule="evenodd"/>
    </clipPath>
  </defs>
  <path id="Trazado_43" data-name="Trazado 43" d="M106.5-322.494a54.059,54.059,0,0,1,54.033,54.034A54.059,54.059,0,0,1,106.5-214.427,54.059,54.059,0,0,1,52.465-268.46,54.059,54.059,0,0,1,106.5-322.494Z" transform="translate(-27.843 349.882)" fill="#e3e4e6" fill-rule="evenodd"/>
  <g id="Grupo_24" data-name="Grupo 24" transform="translate(0 66.031) rotate(-77.616)">
    <g id="Grupo_23" data-name="Grupo 23" transform="translate(0 0)">
      <text id="I" transform="translate(0 17)" font-size="16" font-family="BrandonGrotesque-Black, Brandon Grotesque" font-weight="800"><tspan x="0" y="0">I</tspan></text>
    </g>
  </g>
  <g id="Grupo_26" data-name="Grupo 26" transform="translate(2.039 56.481) rotate(-67.585)">
    <g id="Grupo_25" data-name="Grupo 25" transform="translate(0 0)">
      <text id="N" transform="translate(0 18)" font-size="17" font-family="BrandonGrotesque-Black, Brandon Grotesque" font-weight="800"><tspan x="0" y="0">N</tspan></text>
    </g>
  </g>
  <g id="Grupo_28" data-name="Grupo 28" transform="translate(9.822 39.352) rotate(-55.561)">
    <g id="Grupo_27" data-name="Grupo 27" transform="translate(0 0)">
      <text id="S" transform="translate(0 18)" font-size="17" font-family="BrandonGrotesque-Black, Brandon Grotesque" font-weight="800"><tspan x="0" y="0">S</tspan></text>
    </g>
  </g>
  <g id="Grupo_30" data-name="Grupo 30" transform="matrix(0.694, -0.72, 0.72, 0.694, 17.804, 28.244)">
    <g id="Grupo_29" data-name="Grupo 29" transform="translate(0 0)">
      <text id="T" transform="translate(0 19)" font-size="18" font-family="BrandonGrotesque-Black, Brandon Grotesque" font-weight="800"><tspan x="0" y="0">T</tspan></text>
    </g>
  </g>
  <g id="Grupo_32" data-name="Grupo 32" transform="matrix(0.782, -0.623, 0.623, 0.782, 26.511, 19.61)">
    <g id="Grupo_31" data-name="Grupo 31" transform="translate(0 0)">
      <text id="I-2" data-name="I" transform="translate(0 17)" font-size="16" font-family="BrandonGrotesque-Black, Brandon Grotesque" font-weight="800"><tspan x="0" y="0">I</tspan></text>
    </g>
  </g>
  <g id="Grupo_34" data-name="Grupo 34" transform="matrix(0.858, -0.514, 0.514, 0.858, 33.54, 14.093)">
    <g id="Grupo_33" data-name="Grupo 33" transform="translate(0 0)">
      <text id="T-2" data-name="T" transform="translate(0 19)" font-size="18" font-family="BrandonGrotesque-Black, Brandon Grotesque" font-weight="800"><tspan x="0" y="0">T</tspan></text>
    </g>
  </g>
  <g id="Grupo_36" data-name="Grupo 36" transform="translate(45.27 7.277) rotate(-19.772)">
    <g id="Grupo_35" data-name="Grupo 35" transform="translate(0 0)">
      <text id="U" transform="translate(0 19)" font-size="18" font-family="BrandonGrotesque-Black, Brandon Grotesque" font-weight="800"><tspan x="0" y="0">U</tspan></text>
    </g>
  </g>
  <g id="Grupo_38" data-name="Grupo 38" transform="translate(61.971 1.889) rotate(-8.562)">
    <g id="Grupo_37" data-name="Grupo 37">
      <text id="T-3" data-name="T" transform="translate(0 19)" font-size="18" font-family="BrandonGrotesque-Black, Brandon Grotesque" font-weight="800"><tspan x="0" y="0">T</tspan></text>
    </g>
  </g>
  <g id="Grupo_40" data-name="Grupo 40" transform="translate(75.465 0) rotate(2.997)">
    <g id="Grupo_39" data-name="Grupo 39" transform="translate(0 0)">
      <text id="O" transform="translate(0 18)" font-size="17" font-family="BrandonGrotesque-Black, Brandon Grotesque" font-weight="800"><tspan x="0" y="0">O</tspan></text>
    </g>
  </g>
  <g id="Grupo_42" data-name="Grupo 42" transform="translate(100.124 2.997) rotate(19.507)">
    <g id="Grupo_41" data-name="Grupo 41" transform="translate(0 0)">
      <text id="L" transform="translate(0 19)" font-size="18" font-family="BrandonGrotesque-Black, Brandon Grotesque" font-weight="800"><tspan x="0" y="0">L</tspan></text>
    </g>
  </g>
  <g id="Grupo_44" data-name="Grupo 44" transform="matrix(0.895, 0.446, -0.446, 0.895, 111.457, 7.234)">
    <g id="Grupo_43" data-name="Grupo 43" transform="translate(0 0)">
      <text id="I-3" data-name="I" transform="translate(0 17)" font-size="16" font-family="BrandonGrotesque-Black, Brandon Grotesque" font-weight="800"><tspan x="0" y="0">I</tspan></text>
    </g>
  </g>
  <g id="Grupo_46" data-name="Grupo 46" transform="matrix(0.826, 0.564, -0.564, 0.826, 119.48, 11.291)">
    <g id="Grupo_45" data-name="Grupo 45" transform="translate(0 0)">
      <text id="Z" transform="translate(0 18)" font-size="17" font-family="BrandonGrotesque-Black, Brandon Grotesque" font-weight="800"><tspan x="0" y="0">Z</tspan></text>
    </g>
  </g>
  <g id="Grupo_48" data-name="Grupo 48" transform="translate(130.943 19.435) rotate(45.192)">
    <g id="Grupo_47" data-name="Grupo 47">
      <text id="A" transform="translate(0 19)" font-size="18" font-family="BrandonGrotesque-Black, Brandon Grotesque" font-weight="800"><tspan x="0" y="0">A</tspan></text>
    </g>
  </g>
  <g id="Grupo_50" data-name="Grupo 50" transform="matrix(0.537, 0.844, -0.844, 0.537, 142.515, 31.68)">
    <g id="Grupo_49" data-name="Grupo 49" transform="translate(0 0)">
      <text id="R" transform="translate(0 19)" font-size="18" font-family="BrandonGrotesque-Black, Brandon Grotesque" font-weight="800"><tspan x="0" y="0">R</tspan></text>
    </g>
  </g>
  <g id="Grupo_52" data-name="Grupo 52" transform="translate(151.458 46.374) rotate(70.383)">
    <g id="Grupo_51" data-name="Grupo 51" transform="translate(0 0)">
      <text id="D" transform="translate(0 19)" font-size="18" font-family="BrandonGrotesque-Black, Brandon Grotesque" font-weight="800"><tspan x="0" y="0">D</tspan></text>
    </g>
  </g>
  <g id="Grupo_54" data-name="Grupo 54" transform="translate(156.7 62.667) rotate(79.636)">
    <g id="Grupo_53" data-name="Grupo 53" transform="translate(0 0)">
      <text id="I-4" data-name="I" transform="translate(0 17)" font-size="16" font-family="BrandonGrotesque-Black, Brandon Grotesque" font-weight="800"><tspan x="0" y="0">I</tspan></text>
    </g>
  </g>
  <path id="Trazado_44" data-name="Trazado 44" d="M139.55-263.11A34.021,34.021,0,0,1,173.556-229.1,34.021,34.021,0,0,1,139.55-195.1,34.021,34.021,0,0,1,105.545-229.1,34.021,34.021,0,0,1,139.55-263.11Z" transform="translate(-60.862 312.942)" fill="#00bbf2" fill-rule="evenodd"/>
  <g id="Grupo_55" data-name="Grupo 55" transform="translate(44.683 49.832)" clip-path="url(#clip-path)">
    <path id="Trazado_45" data-name="Trazado 45" d="M133.565-285.626a19.593,19.593,0,0,1-3.243,5.256c-.112.112.112.559,0,.671-.045.045-.949.84-.559,1.23.57.57.625,1.52,1.342,2.236s4.471,2.24,3.467,4.249c-.427.854-1.771,1.333-2.46,1.677-.5.248-.447,1.229-.783,1.565-.088.088-1.118,1.119-.895,1.342,1.255,1.255,3.8,1.677,4.808,2.684.209.209.949-.057,1.118.112,1.645,1.645-.945,2.846-1.677,3.578-.57.57-.729,1.288-1.23,1.789s.624.4.671.447a7.223,7.223,0,0,0,2.684,1.677c.145.048,1.7.2,1.342.559-.5.5-1.6.579-2.237.895a24.38,24.38,0,0,1-5.032,1.789c-.469.117-2.38-.08-2.684.224-.48.481-.431,1.773-1.006,2.348a3.872,3.872,0,0,0-.559,2.684c.85,4.248,7.121,3.82,10.288,2.236.8-.4,2.535-.112,3.467-.112.178,0,1,.113,1.118,0,.309-.309,2.1-2.261,3.131-1.23a8.526,8.526,0,0,1,.895,3.243c-.293.585-.929.482-1.342.895-.034.034.3.415.336.447.162.162-.286,1.516-.336,1.566-.2.2-1.585,1.527-1.342,2.013.254.508,2.9.262,3.355.112.594-.2,1.253-.231,1.9-.447a10.445,10.445,0,0,0,4.025-3.019c.261-.261-.037-1.081.224-1.342a5.924,5.924,0,0,0,.111-2.572c-.412-.413-1.253-3.109-.559-3.8.394-.394.347-1.242.783-1.677.348-.347,1.419-.525,1.789-.895.71-.71,1.565-1.342,2.236-2.013.625-.625-.445-2.792-.671-3.243a9.614,9.614,0,0,0-1.454-2.684c-.308-.308,0-1.46-.224-1.9-.181-.363-.594-1.419-.224-1.789.279-.279-.064-1.166.224-1.454,1.049-1.049,1.573-2.244,2.572-3.243.346-.346,1.2-.3,1.565-.671.149-.149.746.149.895,0,.957-.957,2.017-1.794,3.019-2.8.125-.125,1.034.139,1.118.224.348.348,1.992,1.474,2.684.783.051-.051.66-.09.671-.112a6.061,6.061,0,0,1,.895-1.454c.263-.263.112-1.391.112-1.789a8.018,8.018,0,0,0-1.789-4.137c-2.276-2.276-6.06-2.471-8.946-3.914-.96-.48-.876-1.883-1.565-2.572-.74-.74-1.485-2.38-2.237-3.131-.891-.891-3.634-.167-4.473-1.006-.113-.113-.94,0-1.118,0h-3.355c-3.027,0-7.3.142-9.057,1.9-.49.49-1.565.744-1.565,1.677" transform="translate(-118.634 279.93)" fill="#01a54e" fill-rule="evenodd"/>
    <path id="Trazado_46" data-name="Trazado 46" d="M202.819-183.144c-.743.743-2.3.4-3.019,1.118-.384.384-.744,1.191-1.118,1.565-.229.228.676,1.68.895,1.789,1.239.619,1.6,2.31,2.572,2.8a1.816,1.816,0,0,1,.335,1.9,19.121,19.121,0,0,1-4.7,2.8,2.56,2.56,0,0,0-.336,2.348c.15.15.728.056.895.224.14.14.846,0,1.23,0,1.387,0,2.49.335,3.69.335.383,0,1.3-.357,1.789-.112.822.411.073.817.447,1.565a9.661,9.661,0,0,0,1.342,1.677,5.221,5.221,0,0,0,1.342-1.565c.237-.709.014-2.25.559-2.8l1.565-1.565c.578-.578,2.889.577,3.467,0,.367-.368,1.915.238,2.236.559.255.255,1.37-.126,1.565-.224.613-.307,2.441.466,2.908,0,.31-.31,1.015-.568,1.342-.895.607-.607.493-1.479.783-2.348.115-.345-.146-1.084.112-1.342,1.446-1.446,1.054-4.042.112-5.927a3.017,3.017,0,0,1,.336-2.237c.547-.547-.009-2.339.223-2.572.521-.52.889-1.336,1.342-1.789.624-.624,1.549.439,2.013.671a8.211,8.211,0,0,1,1.565,1.118c1.134,1.134.371,6.116,2.684,3.8,1.484-1.484,2.918-5.346,1.677-7.828-.316-.631-.057-1.68-.335-2.236-.5-1-2.643-2.53-3.467-3.355-1.03-1.03-3.319-.859-4.249-1.789-.3-.3-1.379.186-1.677-.112s-1.095.045-1.565-.112c-.928-.309-2.361.106-3.243-.335-1.658-.829-4.527,0-6.374,0-.5,0-2.179-.057-2.46.223-.567.567-2.357,2.332-1.677,3.69.153.305,1.591,2.658.783,3.467-.369.369-.335.893-.559,1.342s-1.159,1.047-1.454,1.342c-.169.169-.213.873-.336,1.118a4.088,4.088,0,0,0,.336,2.8c.285.285-.168.727-.224.783-.635.635-.578,1.342-1.9,1.342" transform="translate(-162.616 222.848)" fill="#01a54e" fill-rule="evenodd"/>
  </g>
  <path id="Trazado_48" data-name="Trazado 48" d="M139.55-263.11A34.021,34.021,0,0,1,173.556-229.1,34.021,34.021,0,0,1,139.55-195.1,34.021,34.021,0,0,1,105.545-229.1,34.021,34.021,0,0,1,139.55-263.11Z" transform="translate(-60.862 312.942)" fill="none" stroke="#00bcf1" stroke-linecap="round" stroke-linejoin="round" stroke-width="13.927"/>
  <path id="Trazado_49" data-name="Trazado 49" d="M155.951-236.745A24.052,24.052,0,0,1,179.991-212.7a24.052,24.052,0,0,1-24.041,24.041A24.052,24.052,0,0,1,131.91-212.7,24.052,24.052,0,0,1,155.951-236.745Z" transform="translate(-77.262 296.541)" fill="none" stroke="#2d2f90" stroke-linecap="round" stroke-linejoin="round" stroke-width="3"/>
  <path id="Trazado_50" data-name="Trazado 50" d="M172.792-209.671A13.815,13.815,0,0,1,186.6-195.863a13.815,13.815,0,0,1-13.808,13.808,13.815,13.815,0,0,1-13.808-13.808A13.815,13.815,0,0,1,172.792-209.671Z" transform="translate(-94.104 279.7)" fill="none" stroke="#2d2f90" stroke-linecap="round" stroke-linejoin="round" stroke-width="3"/>
  <path id="Trazado_51" data-name="Trazado 51" d="M195.519-229.1v-34" transform="translate(-116.83 312.94)" fill="none" stroke="#2d2f90" stroke-linecap="round" stroke-linejoin="round" stroke-width="2"/>
  <path id="Trazado_52" data-name="Trazado 52" d="M195.5-221.61l17-29.448" transform="translate(-116.818 305.445)" fill="none" stroke="#2d2f90" stroke-linecap="round" stroke-linejoin="round" stroke-width="2"/>
  <path id="Trazado_53" data-name="Trazado 53" d="M195.486-201.138l29.448-17" transform="translate(-116.81 284.968)" fill="none" stroke="#2d2f90" stroke-linecap="round" stroke-linejoin="round" stroke-width="2"/>
  <path id="Trazado_54" data-name="Trazado 54" d="M195.481-173.174h34" transform="translate(-116.807 256.997)" fill="none" stroke="#2d2f90" stroke-linecap="round" stroke-linejoin="round" stroke-width="2"/>
  <path id="Trazado_55" data-name="Trazado 55" d="M195.486-173.193l29.448,17" transform="translate(-116.81 257.008)" fill="none" stroke="#2d2f90" stroke-linecap="round" stroke-linejoin="round" stroke-width="2"/>
  <path id="Trazado_56" data-name="Trazado 56" d="M195.5-173.207l17,29.449" transform="translate(-116.818 257.017)" fill="none" stroke="#2d2f90" stroke-linecap="round" stroke-linejoin="round" stroke-width="2"/>
  <path id="Trazado_57" data-name="Trazado 57" d="M195.519-173.212v34" transform="translate(-116.83 257.02)" fill="none" stroke="#2d2f90" stroke-linecap="round" stroke-linejoin="round" stroke-width="2"/>
  <path id="Trazado_58" data-name="Trazado 58" d="M167.554-173.207l-17,29.449" transform="translate(-88.858 257.017)" fill="none" stroke="#2d2f90" stroke-linecap="round" stroke-linejoin="round" stroke-width="2"/>
  <path id="Trazado_59" data-name="Trazado 59" d="M147.083-173.193l-29.448,17" transform="translate(-68.382 257.008)" fill="none" stroke="#2d2f90" stroke-linecap="round" stroke-linejoin="round" stroke-width="2"/>
  <path id="Trazado_60" data-name="Trazado 60" d="M139.59-173.174h-34" transform="translate(-60.887 256.997)" fill="none" stroke="#2d2f90" stroke-linecap="round" stroke-linejoin="round" stroke-width="2"/>
  <path id="Trazado_61" data-name="Trazado 61" d="M147.083-201.138l-29.448-17" transform="translate(-68.382 284.968)" fill="none" stroke="#2d2f90" stroke-linecap="round" stroke-linejoin="round" stroke-width="2"/>
  <path id="Trazado_62" data-name="Trazado 62" d="M167.554-221.61l-17-29.448" transform="translate(-88.858 305.445)" fill="none" stroke="#2d2f90" stroke-linecap="round" stroke-linejoin="round" stroke-width="2"/>
  <path id="Trazado_63" data-name="Trazado 63" d="M101.656-333.766a57.056,57.056,0,0,0-57.029,57.029,57.056,57.056,0,0,0,57.029,57.029,57.056,57.056,0,0,0,57.029-57.029A57.056,57.056,0,0,0,101.656-333.766Zm0,5.081A51.972,51.972,0,0,1,153.6-276.737a51.972,51.972,0,0,1-51.948,51.947,51.972,51.972,0,0,1-51.948-51.947A51.972,51.972,0,0,1,101.656-328.685Z" transform="translate(-22.967 356.894)" fill="#2d2f90" fill-rule="evenodd"/>
  <g id="Grupo_57" data-name="Grupo 57" transform="matrix(0.774, -0.634, 0.634, 0.774, 45.738, 42.584)">
    <g id="Grupo_56" data-name="Grupo 56" transform="translate(0 0)">
      <text id="Z-2" data-name="Z" transform="translate(0 4)" font-size="4" font-family="BrandonGrotesque-Bold, Brandon Grotesque" font-weight="700"><tspan x="0" y="0">Z</tspan></text>
    </g>
  </g>
  <g id="Grupo_59" data-name="Grupo 59" transform="matrix(0.812, -0.584, 0.584, 0.812, 48.748, 40.164)">
    <g id="Grupo_58" data-name="Grupo 58" transform="translate(0 0)">
      <text id="I-5" data-name="I" transform="translate(0 4)" font-size="4" font-family="BrandonGrotesque-Bold, Brandon Grotesque" font-weight="700"><tspan x="0" y="0">I</tspan></text>
    </g>
  </g>
  <g id="Grupo_61" data-name="Grupo 61" transform="translate(50.794 38.648) rotate(-31.144)">
    <g id="Grupo_60" data-name="Grupo 60" transform="translate(0 0)">
      <text id="H" transform="translate(0 5)" font-size="5" font-family="BrandonGrotesque-Bold, Brandon Grotesque" font-weight="700"><tspan x="0" y="0">H</tspan></text>
    </g>
  </g>
  <g id="Grupo_63" data-name="Grupo 63" transform="translate(55.684 35.753) rotate(-24.802)">
    <g id="Grupo_62" data-name="Grupo 62" transform="translate(0 0)">
      <text id="U-2" data-name="U" transform="translate(0 4)" font-size="4" font-family="BrandonGrotesque-Bold, Brandon Grotesque" font-weight="700"><tspan x="0" y="0">U</tspan></text>
    </g>
  </g>
  <g id="Grupo_65" data-name="Grupo 65" transform="translate(60.449 33.596) rotate(-18.976)">
    <g id="Grupo_64" data-name="Grupo 64" transform="translate(0 0)">
      <text id="A-2" data-name="A" transform="translate(0 5)" font-size="5" font-family="BrandonGrotesque-Bold, Brandon Grotesque" font-weight="700"><tspan x="0" y="0">A</tspan></text>
    </g>
  </g>
  <g id="Grupo_67" data-name="Grupo 67" transform="translate(64.774 32.145) rotate(-14.308)">
    <g id="Grupo_66" data-name="Grupo 66" transform="translate(0 0)">
      <text id="T-4" data-name="T" transform="translate(0 4)" font-size="4" font-family="BrandonGrotesque-Bold, Brandon Grotesque" font-weight="700"><tspan x="0" y="0">T</tspan></text>
    </g>
  </g>
  <g id="Grupo_69" data-name="Grupo 69" transform="translate(68.17 31.27) rotate(-9.666)">
    <g id="Grupo_68" data-name="Grupo 68" transform="translate(0 0)">
      <text id="A-3" data-name="A" transform="translate(0 5)" font-size="5" font-family="BrandonGrotesque-Bold, Brandon Grotesque" font-weight="700"><tspan x="0" y="0">A</tspan></text>
    </g>
  </g>
  <g id="Grupo_71" data-name="Grupo 71" transform="matrix(0.998, -0.062, 0.062, 0.998, 73.081, 30.454)">
    <g id="Grupo_70" data-name="Grupo 70" transform="translate(0 0)">
      <text id="N-2" data-name="N" transform="translate(0 5)" font-size="5" font-family="BrandonGrotesque-Bold, Brandon Grotesque" font-weight="700"><tspan x="0" y="0">N</tspan></text>
    </g>
  </g>
  <g id="Grupo_73" data-name="Grupo 73" transform="translate(78.709 30.164) rotate(2.293)">
    <g id="Grupo_72" data-name="Grupo 72" transform="translate(0 0)">
      <text id="E" transform="translate(0 5)" font-size="5" font-family="BrandonGrotesque-Bold, Brandon Grotesque" font-weight="700"><tspan x="0" y="0">E</tspan></text>
    </g>
  </g>
  <g id="Grupo_75" data-name="Grupo 75" transform="translate(82.955 30.373) rotate(6.044)">
    <g id="Grupo_74" data-name="Grupo 74" transform="translate(0 0)">
      <text id="J" transform="translate(0 3)" font-size="3" font-family="BrandonGrotesque-Bold, Brandon Grotesque" font-weight="700"><tspan x="0" y="0">J</tspan></text>
    </g>
  </g>
  <g id="Grupo_77" data-name="Grupo 77" transform="translate(86.274 30.71) rotate(11.622)">
    <g id="Grupo_76" data-name="Grupo 76" transform="translate(0 0)">
      <text id="O-2" data-name="O" transform="translate(0 5)" font-size="5" font-family="BrandonGrotesque-Bold, Brandon Grotesque" font-weight="700"><tspan x="0" y="0">O</tspan></text>
    </g>
  </g>
  <g id="Grupo_79" data-name="Grupo 79" transform="matrix(0.961, 0.276, -0.276, 0.961, 91.683, 31.908)">
    <g id="Grupo_78" data-name="Grupo 78">
      <text id="_" data-name="," transform="translate(0 5)" font-size="5" font-family="BrandonGrotesque-Bold, Brandon Grotesque" font-weight="700"><tspan x="0" y="0">,</tspan></text>
    </g>
  </g>
  <g id="Grupo_81" data-name="Grupo 81" transform="matrix(0.927, 0.375, -0.375, 0.927, 95.305, 32.987)">
    <g id="Grupo_80" data-name="Grupo 80" transform="translate(0 0)">
      <text id="G" transform="translate(0 4)" font-size="4" font-family="BrandonGrotesque-Bold, Brandon Grotesque" font-weight="700"><tspan x="0" y="0">G</tspan></text>
    </g>
  </g>
  <g id="Grupo_83" data-name="Grupo 83" transform="translate(100.192 35.007) rotate(28.113)">
    <g id="Grupo_82" data-name="Grupo 82" transform="translate(0 0)">
      <text id="R-2" data-name="R" transform="translate(0 5)" font-size="5" font-family="BrandonGrotesque-Bold, Brandon Grotesque" font-weight="700"><tspan x="0" y="0">R</tspan></text>
    </g>
  </g>
  <g id="Grupo_85" data-name="Grupo 85" transform="translate(104.583 37.365) rotate(34.17)">
    <g id="Grupo_84" data-name="Grupo 84" transform="translate(0 0)">
      <text id="O-3" data-name="O" transform="translate(0 5)" font-size="5" font-family="BrandonGrotesque-Bold, Brandon Grotesque" font-weight="700"><tspan x="0" y="0">O</tspan></text>
    </g>
  </g>
  <g id="Grupo_87" data-name="Grupo 87" transform="matrix(0.784, 0.621, -0.621, 0.784, 109.1, 40.526)">
    <g id="Grupo_86" data-name="Grupo 86" transform="translate(0 0)">
      <text id="_." data-name="." transform="translate(0 5)" font-size="5" font-family="BrandonGrotesque-Bold, Brandon Grotesque" font-weight="700"><tspan x="0" y="0">.</tspan></text>
    </g>
  </g>
  <path id="Trazado_64" data-name="Trazado 64" d="M147.168-281.381a37.134,37.134,0,0,1,17.187-4.189,37.134,37.134,0,0,1,17.187,4.189,1.2,1.2,0,0,0,1.613-.509,1.2,1.2,0,0,0-.509-1.613,39.521,39.521,0,0,0-18.29-4.459,39.523,39.523,0,0,0-18.291,4.459,1.2,1.2,0,0,0-.509,1.613A1.2,1.2,0,0,0,147.168-281.381Z" transform="translate(-85.666 328.401)" fill="#2d2f90" fill-rule="evenodd"/>
  <path id="Trazado_65" data-name="Trazado 65" d="M124.144-32.77H178.1V-52.68H124.144Z" transform="translate(-72.521 182.043)" fill="#2d2f90" fill-rule="evenodd"/>
  <g id="Grupo_88" data-name="Grupo 88" transform="translate(58.911 132.069)">
    <text id="MÉXICO" transform="translate(0 9)" fill="#fff" font-size="9" font-family="BrandonGrotesque-Bold, Brandon Grotesque" font-weight="700"><tspan x="0" y="0">MÉXICO</tspan></text>
  </g>
  <path id="Trazado_66" data-name="Trazado 66" d="M60.274-108.381A63.917,63.917,0,0,1,28.9-146.765a1.512,1.512,0,0,0-1.876-1.025A1.512,1.512,0,0,0,26-145.914a66.947,66.947,0,0,0,32.855,40.2,1.513,1.513,0,0,0,2.044-.628A1.513,1.513,0,0,0,60.274-108.381Z" transform="translate(-11.344 241.245)" fill="#01a54e" fill-rule="evenodd"/>
  <path id="Trazado_67" data-name="Trazado 67" d="M7.133-162.1a7.235,7.235,0,0,1,7.617,1.671,7.235,7.235,0,0,1,1.671,7.617A7.235,7.235,0,0,1,8.8-154.482,7.235,7.235,0,0,1,7.133-162.1Z" transform="translate(0.633 250.384)" fill="#01a54e" fill-rule="evenodd"/>
  <path id="Trazado_68" data-name="Trazado 68" d="M13.883-127.382a7.235,7.235,0,0,1,7.79-.357,7.234,7.234,0,0,1,3.585,6.925,7.235,7.235,0,0,1-7.79.357A7.234,7.234,0,0,1,13.883-127.382Z" transform="translate(-3.824 229.336)" fill="#01a54e" fill-rule="evenodd"/>
  <path id="Trazado_69" data-name="Trazado 69" d="M27.324-96.131a7.235,7.235,0,0,1,7.432-2.362,7.235,7.235,0,0,1,5.256,5.761,7.235,7.235,0,0,1-7.432,2.362A7.235,7.235,0,0,1,27.324-96.131Z" transform="translate(-12.204 210.695)" fill="#01a54e" fill-rule="evenodd"/>
  <path id="Trazado_70" data-name="Trazado 70" d="M47.714-68.373a7.235,7.235,0,0,1,6.568-4.2,7.235,7.235,0,0,1,6.568,4.2,7.235,7.235,0,0,1-6.568,4.2A7.235,7.235,0,0,1,47.714-68.373Z" transform="translate(-24.888 194.42)" fill="#01a54e" fill-rule="evenodd"/>
  <path id="Trazado_71" data-name="Trazado 71" d="M72.6-44.382a7.235,7.235,0,0,1,5.256-5.761,7.235,7.235,0,0,1,7.432,2.362,7.235,7.235,0,0,1-5.256,5.761A7.235,7.235,0,0,1,72.6-44.382Z" transform="translate(-40.367 180.619)" fill="#01a54e" fill-rule="evenodd"/>
  <path id="Trazado_72" data-name="Trazado 72" d="M272.319-105.709a66.947,66.947,0,0,0,32.856-40.2,1.513,1.513,0,0,0-1.025-1.876,1.512,1.512,0,0,0-1.876,1.025,63.917,63.917,0,0,1-31.37,38.384,1.513,1.513,0,0,0-.628,2.044A1.513,1.513,0,0,0,272.319-105.709Z" transform="translate(-163.223 241.245)" fill="#01a54e" fill-rule="evenodd"/>
  <path id="Trazado_73" data-name="Trazado 73" d="M365.121-162.1a7.236,7.236,0,0,0-7.618,1.671,7.235,7.235,0,0,0-1.671,7.617,7.234,7.234,0,0,0,7.617-1.671A7.235,7.235,0,0,0,365.121-162.1Z" transform="translate(-216.277 250.384)" fill="#01a54e" fill-rule="evenodd"/>
  <path id="Trazado_74" data-name="Trazado 74" d="M356.3-127.382a7.234,7.234,0,0,0-7.79-.357,7.234,7.234,0,0,0-3.586,6.925,7.235,7.235,0,0,0,7.79.357A7.234,7.234,0,0,0,356.3-127.382Z" transform="translate(-209.753 229.336)" fill="#01a54e" fill-rule="evenodd"/>
  <path id="Trazado_75" data-name="Trazado 75" d="M340.8-96.131a7.235,7.235,0,0,0-7.432-2.362,7.235,7.235,0,0,0-5.256,5.761,7.235,7.235,0,0,0,7.432,2.362A7.235,7.235,0,0,0,340.8-96.131Z" transform="translate(-199.312 210.695)" fill="#01a54e" fill-rule="evenodd"/>
  <path id="Trazado_76" data-name="Trazado 76" d="M319.674-68.373a7.235,7.235,0,0,0-6.568-4.2,7.235,7.235,0,0,0-6.568,4.2,7.235,7.235,0,0,0,6.568,4.2A7.235,7.235,0,0,0,319.674-68.373Z" transform="translate(-185.891 194.42)" fill="#01a54e" fill-rule="evenodd"/>
  <path id="Trazado_77" data-name="Trazado 77" d="M295.527-44.382a7.235,7.235,0,0,0-5.256-5.761,7.235,7.235,0,0,0-7.432,2.362,7.235,7.235,0,0,0,5.256,5.761A7.235,7.235,0,0,0,295.527-44.382Z" transform="translate(-171.148 180.619)" fill="#01a54e" fill-rule="evenodd"/>
  <path id="Trazado_78" data-name="Trazado 78" d="M214.415-232.852a128.316,128.316,0,0,0-7.28-18.042s-4.9-4.3-1.52-6.8,7.27,2.192,7.27,2.192c16.927.378,22.741,20.914,22.741,20.914.04.172.078.342.115.511,3.242,1.809,8.668,4.958,7.876,12.857,0,0-.322,1.846-1.624,1.475-2.4-.681-2.305-1.838-5.38-1.475-2.219,21.83-24.158,28.921-24.384,28.742-4.467,14.083-8.708,8.157-8.708,8.157v-10.653s-11.436-2.517-9.741-6.2a14.452,14.452,0,0,1,14.231-1.027c9.416-1.981,10.5-11.4,8.707-21.436-2.031,1.544-4.112,4.147-5.474,5.384-.819.743-1.651-.577-1.651-.577C207.9-227.106,211.831-231.147,214.415-232.852Z" transform="translate(-115.642 310.032)" fill="#2d2f90" fill-rule="evenodd"/>
  <g id="Grupo_89" data-name="Grupo 89" transform="translate(77.967 51.6)" clip-path="url(#clip-path-2)">
    <path id="Trazado_79" data-name="Trazado 79" d="M221.527-258.2s-1.017,2.118,1.8,4.858,5.889,1.048,8.805,5.563c3.519,5.448-3.834,11.6-8.805,12.535L207.938-262.1C215.042-262.663,216.929-262.028,221.527-258.2Z" transform="translate(-202.522 260.826)" fill="#a6a7aa" fill-rule="evenodd"/>
    <path id="Trazado_80" data-name="Trazado 80" d="M246.925-156.871a9.094,9.094,0,0,0-6.5-9.518l-3.57,9.518-5.138,11.918S246.312-146.6,246.925-156.871Z" transform="translate(-217.313 201.176)" fill="#a6a7aa" fill-rule="evenodd"/>
    <path id="Trazado_81" data-name="Trazado 81" d="M257.825-228.534a.763.763,0,0,1,.763.763.763.763,0,0,1-.763.763.763.763,0,0,1-.763-.763A.763.763,0,0,1,257.825-228.534Z" transform="translate(-233.08 239.834)" fill="#2d2f90" fill-rule="evenodd"/>
  </g>
  <path id="Trazado_83" data-name="Trazado 83" d="M94.185-232.852a128.317,128.317,0,0,1,7.28-18.042s4.9-4.3,1.52-6.8-7.27,2.192-7.27,2.192c-16.927.378-22.742,20.914-22.742,20.914-.039.172-.078.342-.115.511-3.242,1.809-8.668,4.958-7.876,12.857,0,0,.322,1.846,1.624,1.475,2.4-.681,2.305-1.838,5.381-1.475,2.219,21.83,24.158,28.921,24.384,28.742,4.467,14.083,8.708,8.157,8.708,8.157v-10.653s11.436-2.517,9.741-6.2a14.452,14.452,0,0,0-14.231-1.027c-9.416-1.981-10.5-11.4-8.707-21.436,2.031,1.544,4.112,4.147,5.474,5.384.819.743,1.651-.577,1.651-.577C100.7-227.106,96.768-231.147,94.185-232.852Z" transform="translate(-35.581 310.032)" fill="#2d2f90" fill-rule="evenodd"/>
  <g id="Grupo_90" data-name="Grupo 90" transform="translate(29.324 51.6)" clip-path="url(#clip-path-3)">
    <path id="Trazado_84" data-name="Trazado 84" d="M128.17-258.2s1.017,2.118-1.8,4.858-5.889,1.048-8.805,5.563c-3.519,5.448,3.834,11.6,8.805,12.535L141.759-262.1C134.655-262.663,132.769-262.028,128.17-258.2Z" transform="translate(-97.088 260.826)" fill="#a6a7aa" fill-rule="evenodd"/>
    <path id="Trazado_85" data-name="Trazado 85" d="M119.043-156.871a9.093,9.093,0,0,1,6.5-9.518l3.57,9.518,5.138,11.918S119.657-146.6,119.043-156.871Z" transform="translate(-98.568 201.176)" fill="#a6a7aa" fill-rule="evenodd"/>
    <path id="Trazado_86" data-name="Trazado 86" d="M130.7-228.534a.763.763,0,0,0-.763.763.763.763,0,0,0,.763.763.763.763,0,0,0,.763-.763A.763.763,0,0,0,130.7-228.534Z" transform="translate(-105.36 239.834)" fill="#2d2f90" fill-rule="evenodd"/>
  </g>
</svg>
