<?xml version="1.0" encoding="UTF-8" standalone="no"?>
<!DOCTYPE svg PUBLIC "-//W3C//DTD SVG 1.1//EN" "http://www.w3.org/Graphics/SVG/1.1/DTD/svg11.dtd">
<svg width="100%" height="100%" viewBox="0 0 231 78" version="1.1" xmlns="http://www.w3.org/2000/svg" xmlns:xlink="http://www.w3.org/1999/xlink" xml:space="preserve" xmlns:serif="http://www.serif.com/" style="fill-rule:evenodd;clip-rule:evenodd;stroke-linecap:round;stroke-linejoin:round;">
    <g transform="matrix(0.972682,0,0,0.948839,-1.22556,64.6247)">
        <g id="Grupo_22">
            <g>
                <g id="Trazado_3" transform="matrix(1,0,0,1,3.227,2.507)">
                    <path d="M39.785,-49.585C50.697,-49.581 59.675,-40.603 59.678,-29.691C59.673,-18.78 50.696,-9.804 39.785,-9.8C28.874,-9.803 19.896,-18.78 19.891,-29.691C19.894,-40.603 28.873,-49.582 39.785,-49.585Z" style="fill:rgb(0,187,242);stroke:rgb(0,188,241);stroke-width:5.43px;"/>
                </g>
                <g id="Trazado_4" transform="matrix(1,0,0,1,4.088,3.368)">
                    <path d="M38.924,-44.617C46.638,-44.613 52.985,-38.266 52.988,-30.552C52.984,-22.838 46.638,-16.492 38.924,-16.488C31.21,-16.492 24.864,-22.838 24.86,-30.552C24.863,-38.266 31.21,-44.613 38.924,-44.617Z" style="fill:none;fill-rule:nonzero;stroke:rgb(45,47,144);stroke-width:1.17px;"/>
                </g>
                <g id="Trazado_5" transform="matrix(1,0,0,1,4.972,4.252)">
                    <path d="M38.04,-39.514C42.471,-39.512 46.116,-35.867 46.118,-31.436C46.116,-27.005 42.471,-23.36 38.04,-23.358C33.609,-23.36 29.964,-27.005 29.962,-31.436C29.964,-35.867 33.609,-39.512 38.04,-39.514Z" style="fill:none;fill-rule:nonzero;stroke:rgb(45,47,144);stroke-width:1.17px;"/>
                </g>
                <g id="Trazado_6" transform="matrix(1,0,0,1,6.165,2.507)">
                    <path d="M36.847,-29.692L36.847,-49.585" style="fill:none;fill-rule:nonzero;stroke:rgb(45,47,144);stroke-width:0.78px;"/>
                </g>
                <g id="Trazado_7" transform="matrix(1,0,0,1,6.164,2.9)">
                    <path d="M36.844,-30.086L46.79,-47.314" style="fill:none;fill-rule:nonzero;stroke:rgb(45,47,144);stroke-width:0.78px;"/>
                </g>
                <g id="Trazado_8" transform="matrix(1,0,0,1,6.164,3.975)">
                    <path d="M36.841,-31.164L54.069,-41.11" style="fill:none;fill-rule:nonzero;stroke:rgb(45,47,144);stroke-width:0.78px;"/>
                </g>
                <g id="Trazado_9" transform="matrix(1,0,0,1,6.164,5.443)">
                    <path d="M36.84,-32.636L56.733,-32.636" style="fill:none;fill-rule:nonzero;stroke:rgb(45,47,144);stroke-width:0.78px;"/>
                </g>
                <g id="Trazado_10" transform="matrix(1,0,0,1,6.164,5.443)">
                    <path d="M36.841,-32.64L54.069,-22.693" style="fill:none;fill-rule:nonzero;stroke:rgb(45,47,144);stroke-width:0.78px;"/>
                </g>
                <g id="Trazado_11" transform="matrix(1,0,0,1,6.164,5.442)">
                    <path d="M36.844,-32.642L46.79,-15.414" style="fill:none;fill-rule:nonzero;stroke:rgb(45,47,144);stroke-width:0.78px;"/>
                </g>
                <g id="Trazado_12" transform="matrix(1,0,0,1,6.165,5.442)">
                    <path d="M36.847,-32.643L36.847,-12.75" style="fill:none;fill-rule:nonzero;stroke:rgb(45,47,144);stroke-width:0.78px;"/>
                </g>
                <g id="Trazado_13" transform="matrix(1,0,0,1,4.697,5.442)">
                    <path d="M38.319,-32.642L28.373,-15.414" style="fill:none;fill-rule:nonzero;stroke:rgb(45,47,144);stroke-width:0.78px;"/>
                </g>
                <g id="Trazado_14" transform="matrix(1,0,0,1,3.622,5.443)">
                    <path d="M39.4,-32.64L22.169,-22.693" style="fill:none;fill-rule:nonzero;stroke:rgb(45,47,144);stroke-width:0.78px;"/>
                </g>
                <g id="Trazado_15" transform="matrix(1,0,0,1,3.229,5.443)">
                    <path d="M39.792,-32.636L19.9,-32.636" style="fill:none;fill-rule:nonzero;stroke:rgb(45,47,144);stroke-width:0.78px;"/>
                </g>
                <g id="Trazado_16" transform="matrix(1,0,0,1,3.622,3.975)">
                    <path d="M39.4,-31.164L22.169,-41.11" style="fill:none;fill-rule:nonzero;stroke:rgb(45,47,144);stroke-width:0.78px;"/>
                </g>
                <g id="Trazado_17" transform="matrix(1,0,0,1,4.697,2.9)">
                    <path d="M38.319,-30.086L28.373,-47.314" style="fill:none;fill-rule:nonzero;stroke:rgb(45,47,144);stroke-width:0.78px;"/>
                </g>
                <g id="Trazado_18" transform="matrix(1,0,0,1,1.239,0.2)">
                    <path d="M41.773,-62.9C23.474,-62.891 8.419,-47.837 8.41,-29.538C8.419,-11.239 23.474,3.816 41.773,3.825C60.072,3.817 75.128,-11.239 75.137,-29.538C75.128,-47.837 60.072,-62.892 41.773,-62.9ZM41.773,-59.927C58.442,-59.922 72.158,-46.206 72.163,-29.537C72.157,-12.868 58.442,0.847 41.773,0.852C25.104,0.847 11.388,-12.869 11.383,-29.538C11.388,-46.207 25.104,-59.923 41.773,-59.928L41.773,-59.927Z" style="fill:rgb(45,47,144);"/>
                </g>
                <g id="Trazado_19" transform="matrix(1,0,0,1,4.529,1.35)">
                    <path d="M28.428,-52.416C31.533,-54.031 34.983,-54.872 38.483,-54.867C41.983,-54.872 45.432,-54.031 48.537,-52.416C48.637,-52.364 48.747,-52.337 48.859,-52.337C49.121,-52.337 49.361,-52.484 49.481,-52.716C49.533,-52.816 49.56,-52.926 49.56,-53.038C49.56,-53.3 49.413,-53.54 49.181,-53.66C45.877,-55.379 42.206,-56.274 38.481,-56.269C34.756,-56.274 31.085,-55.379 27.781,-53.66C27.549,-53.54 27.402,-53.3 27.402,-53.038C27.402,-52.926 27.429,-52.816 27.481,-52.716C27.601,-52.483 27.842,-52.336 28.103,-52.336C28.216,-52.336 28.328,-52.364 28.428,-52.416Z" style="fill:rgb(45,47,144);"/>
                </g>
                <g id="Trazado_20" transform="matrix(1,0,0,1,3.835,9.377)">
                    <rect x="23.4" y="-9.928" width="31.559" height="11.648" style="fill:rgb(45,47,144);"/>
                </g>
                <g id="Trazado_21" transform="matrix(1,0,0,1,0.629,6.27)">
                    <path d="M24.974,-4.773C16.089,-9.482 9.468,-17.583 6.622,-27.228C6.512,-27.604 6.165,-27.864 5.773,-27.864C5.688,-27.864 5.603,-27.852 5.522,-27.828C5.146,-27.718 4.886,-27.371 4.886,-26.979C4.886,-26.894 4.898,-26.809 4.922,-26.728C7.904,-16.626 14.839,-8.142 24.146,-3.21C24.274,-3.141 24.418,-3.105 24.563,-3.105C24.891,-3.105 25.193,-3.287 25.346,-3.577C25.413,-3.704 25.448,-3.846 25.448,-3.989C25.448,-4.318 25.265,-4.62 24.974,-4.773Z" style="fill:rgb(45,47,144);"/>
                </g>
                <g id="Trazado_22" transform="matrix(1,0,0,1,0,5.79)">
                    <path d="M1.521,-30.372C3.067,-30.942 4.812,-30.559 5.977,-29.394C7.142,-28.229 7.525,-26.484 6.955,-24.938C5.409,-24.369 3.665,-24.751 2.5,-25.916C1.334,-27.081 0.951,-28.826 1.521,-30.372Z" style="fill:rgb(45,47,144);"/>
                </g>
                <g id="Trazado_23" transform="matrix(1,0,0,1,0.234,6.895)">
                    <path d="M2.628,-23.48C3.974,-24.431 5.758,-24.513 7.185,-23.689C8.613,-22.865 9.435,-21.279 9.285,-19.638C7.939,-18.687 6.155,-18.606 4.728,-19.429C3.3,-20.253 2.478,-21.838 2.628,-23.48Z" style="fill:rgb(45,47,144);"/>
                </g>
                <g id="Trazado_24" transform="matrix(1,0,0,1,0.674,7.873)">
                    <path d="M5.149,-17.082C6.204,-18.35 7.907,-18.891 9.5,-18.463C11.092,-18.036 12.296,-16.717 12.575,-15.093C11.521,-13.826 9.819,-13.285 8.227,-13.711C6.634,-14.137 5.429,-15.457 5.149,-17.082Z" style="fill:rgb(45,47,144);"/>
                </g>
                <g id="Trazado_25" transform="matrix(1,0,0,1,1.339,8.727)">
                    <path d="M8.992,-11.218C9.682,-12.715 11.186,-13.678 12.834,-13.678C14.482,-13.677 15.986,-12.714 16.676,-11.218C15.986,-9.721 14.482,-8.758 12.834,-8.758C11.186,-8.758 9.682,-9.721 8.992,-11.218Z" style="fill:rgb(45,47,144);"/>
                </g>
                <g id="Trazado_26" transform="matrix(1,0,0,1,2.152,9.452)">
                    <path d="M13.682,-5.981C13.961,-7.605 15.165,-8.924 16.757,-9.351C18.347,-9.775 20.047,-9.235 21.1,-7.97C20.821,-6.347 19.62,-5.029 18.03,-4.6C16.438,-4.174 14.736,-4.714 13.682,-5.981Z" style="fill:rgb(45,47,144);"/>
                </g>
                <g id="Trazado_27" transform="matrix(1,0,0,1,8.6,6.27)">
                    <path d="M52.2,-3.21C61.507,-8.143 68.441,-16.628 71.422,-26.73C71.446,-26.811 71.458,-26.896 71.458,-26.981C71.458,-27.373 71.198,-27.72 70.822,-27.83C70.741,-27.854 70.656,-27.866 70.571,-27.866C70.179,-27.866 69.832,-27.606 69.722,-27.23C66.877,-17.585 60.258,-9.484 51.373,-4.773C51.083,-4.62 50.901,-4.318 50.901,-3.99C50.901,-3.845 50.937,-3.701 51.006,-3.573C51.235,-3.147 51.773,-2.984 52.2,-3.21Z" style="fill:rgb(45,47,144);"/>
                </g>
                <g id="Trazado_28" transform="matrix(1,0,0,1,11.384,5.79)">
                    <path d="M72.67,-30.372C71.124,-30.942 69.379,-30.559 68.214,-29.394C67.049,-28.229 66.666,-26.484 67.236,-24.938C68.782,-24.368 70.526,-24.751 71.692,-25.916C72.857,-27.081 73.24,-28.826 72.67,-30.372Z" style="fill:rgb(45,47,144);"/>
                </g>
                <g id="Trazado_29" transform="matrix(1,0,0,1,11.042,6.895)">
                    <path d="M71.671,-23.48C70.325,-24.431 68.541,-24.513 67.114,-23.689C65.686,-22.865 64.864,-21.279 65.014,-19.638C66.36,-18.687 68.144,-18.606 69.571,-19.429C70.999,-20.253 71.821,-21.838 71.671,-23.48Z" style="fill:rgb(45,47,144);"/>
                </g>
                <g id="Trazado_30" transform="matrix(1,0,0,1,10.494,7.873)">
                    <path d="M69.258,-17.082C68.204,-18.349 66.502,-18.889 64.91,-18.463C63.318,-18.036 62.114,-16.717 61.835,-15.093C62.889,-13.826 64.591,-13.285 66.183,-13.711C67.775,-14.138 68.979,-15.458 69.258,-17.082Z" style="fill:rgb(45,47,144);"/>
                </g>
                <g id="Trazado_31" transform="matrix(1,0,0,1,9.789,8.727)">
                    <path d="M65.454,-11.218C64.764,-12.715 63.26,-13.678 61.612,-13.678C59.964,-13.678 58.46,-12.715 57.77,-11.218C58.46,-9.721 59.964,-8.758 61.612,-8.758C63.26,-8.758 64.764,-9.721 65.454,-11.218Z" style="fill:rgb(45,47,144);"/>
                </g>
                <g id="Trazado_32" transform="matrix(1,0,0,1,9.016,9.452)">
                    <path d="M60.726,-5.981C60.446,-7.605 59.243,-8.924 57.651,-9.351C56.058,-9.778 54.355,-9.238 53.3,-7.97C53.58,-6.345 54.785,-5.026 56.378,-4.6C57.97,-4.174 59.672,-4.714 60.726,-5.981Z" style="fill:rgb(45,47,144);"/>
                </g>
                <g id="Trazado_33" transform="matrix(1,0,0,1,6.102,2.66)">
                    <path d="M48.66,-33.739C47.509,-37.36 46.085,-40.889 44.4,-44.294C42.715,-47.699 41.532,-46.812 43.511,-48.275C45.49,-49.738 47.764,-46.992 47.764,-46.992C57.664,-46.771 61.064,-34.757 61.064,-34.757C61.087,-34.657 61.11,-34.557 61.131,-34.457C63.031,-33.399 66.202,-31.557 65.739,-26.936C65.739,-26.936 65.551,-25.856 64.789,-26.073C63.389,-26.473 63.44,-27.148 61.641,-26.936C60.341,-14.165 47.508,-10.017 47.376,-10.121C44.763,-1.882 42.282,-5.349 42.282,-5.349L42.282,-11.581C42.282,-11.581 35.592,-13.053 36.582,-15.211C39.055,-16.86 42.223,-17.089 44.907,-15.811C50.416,-16.97 51.05,-22.481 50.001,-28.351C48.813,-27.451 47.596,-25.925 46.801,-25.201C46.322,-24.766 45.835,-25.538 45.835,-25.538C44.85,-30.377 47.148,-32.741 48.66,-33.739Z" style="fill:rgb(45,47,144);"/>
                </g>
                <g id="Grupo_18" transform="matrix(1,0,0,1,42.59,-46.044)">
                    <g>
                        <clipPath id="_clip1">
                            <path d="M12.173,14.965C11.022,11.344 9.598,7.815 7.913,4.41C6.228,1.005 5.045,1.892 7.024,0.429C9.003,-1.034 11.277,1.712 11.277,1.712C21.177,1.933 24.577,13.947 24.577,13.947C24.6,14.047 24.623,14.147 24.644,14.247C26.544,15.305 29.715,17.147 29.252,21.768C29.252,21.768 29.064,22.848 28.302,22.631C26.902,22.231 26.953,21.556 25.154,21.768C23.854,34.539 11.021,38.687 10.889,38.583C8.276,46.822 5.795,43.355 5.795,43.355L5.795,37.123C5.795,37.123 -0.895,35.651 0.095,33.493C2.568,31.844 5.736,31.615 8.42,32.893C13.929,31.734 14.563,26.223 13.514,20.353C12.326,21.253 11.109,22.779 10.314,23.503C9.835,23.938 9.348,23.166 9.348,23.166C8.363,18.327 10.661,15.963 12.173,14.965Z"/>
                        </clipPath>
                        <g clip-path="url(#_clip1)">
                            <g id="Trazado_34" transform="matrix(1,0,0,1,-36.019,48.578)">
                                <path d="M47.138,-47.043C47.138,-47.043 46.538,-45.804 48.192,-44.201C49.846,-42.598 51.637,-43.588 53.343,-40.947C55.402,-37.76 51.1,-34.161 48.192,-33.614L39.192,-49.326C43.344,-49.653 44.448,-49.281 47.138,-47.043Z" style="fill:white;"/>
                            </g>
                            <g id="Trazado_35" transform="matrix(1,0,0,1,-35.243,51.709)">
                                <path d="M52.567,-25.789C52.787,-28.304 51.189,-30.645 48.767,-31.357L46.679,-25.789L43.673,-18.817C43.673,-18.817 52.208,-19.782 52.567,-25.789Z" style="fill:white;"/>
                            </g>
                            <g id="Trazado_36" transform="matrix(1,0,0,1,-34.416,49.68)">
                                <path d="M48.892,-43.069C49.137,-43.069 49.338,-42.868 49.338,-42.623C49.338,-42.378 49.137,-42.177 48.892,-42.177C48.647,-42.177 48.446,-42.378 48.446,-42.623C48.447,-42.867 48.648,-43.068 48.892,-43.069Z" style="fill:rgb(45,47,144);"/>
                            </g>
                        </g>
                    </g>
                </g>
                <g id="Trazado_38" transform="matrix(1,0,0,1,1.901,2.66)">
                    <path d="M29.361,-33.739C30.512,-37.36 31.935,-40.888 33.62,-44.294C35.305,-47.7 36.488,-46.812 34.509,-48.275C32.53,-49.738 30.256,-46.992 30.256,-46.992C20.356,-46.771 16.956,-34.757 16.956,-34.757C16.933,-34.657 16.91,-34.557 16.889,-34.457C14.989,-33.399 11.818,-31.557 12.281,-26.936C12.281,-26.936 12.469,-25.856 13.231,-26.073C14.631,-26.473 14.58,-27.148 16.379,-26.936C17.679,-14.165 30.512,-10.017 30.644,-10.121C33.257,-1.882 35.738,-5.349 35.738,-5.349L35.738,-11.581C35.738,-11.581 42.428,-13.053 41.438,-15.211C38.965,-16.86 35.797,-17.089 33.113,-15.811C27.604,-16.97 26.97,-22.481 28.019,-28.351C29.207,-27.451 30.424,-25.925 31.219,-25.201C31.698,-24.766 32.185,-25.538 32.185,-25.538C33.171,-30.377 30.873,-32.741 29.361,-33.739Z" style="fill:rgb(45,47,144);"/>
                </g>
                <g id="Grupo_19" transform="matrix(1,0,0,1,14.132,-46.044)">
                    <g>
                        <clipPath id="_clip2">
                            <path d="M17.129,14.965C18.28,11.344 19.703,7.816 21.388,4.41C23.073,1.004 24.256,1.892 22.277,0.429C20.298,-1.034 18.024,1.712 18.024,1.712C8.124,1.933 4.724,13.947 4.724,13.947C4.701,14.047 4.678,14.147 4.657,14.247C2.757,15.305 -0.414,17.147 0.049,21.768C0.049,21.768 0.237,22.848 0.999,22.631C2.399,22.231 2.348,21.556 4.147,21.768C5.447,34.539 18.28,38.687 18.412,38.583C21.025,46.822 23.506,43.355 23.506,43.355L23.506,37.123C23.506,37.123 30.196,35.651 29.206,33.493C26.733,31.844 23.565,31.615 20.881,32.893C15.372,31.734 14.738,26.223 15.787,20.353C16.975,21.253 18.192,22.779 18.987,23.503C19.466,23.938 19.953,23.166 19.953,23.166C20.939,18.327 18.641,15.963 17.129,14.965Z"/>
                        </clipPath>
                        <g clip-path="url(#_clip2)">
                            <g id="Trazado_39" transform="matrix(1,0,0,1,-10.543,48.578)">
                                <path d="M28.726,-47.043C28.726,-47.043 29.326,-45.804 27.672,-44.201C26.018,-42.598 24.227,-43.588 22.521,-40.947C20.462,-37.76 24.764,-34.161 27.672,-33.614L36.672,-49.326C32.52,-49.653 31.416,-49.281 28.726,-47.043Z" style="fill:white;"/>
                            </g>
                            <g id="Trazado_40" transform="matrix(1,0,0,1,-10.465,51.709)">
                                <path d="M22.443,-25.789C22.223,-28.304 23.821,-30.645 26.243,-31.357L28.331,-25.789L31.337,-18.817C31.337,-18.817 22.8,-19.782 22.443,-25.789Z" style="fill:white;"/>
                            </g>
                            <g id="Trazado_41" transform="matrix(1,0,0,1,-10.109,49.68)">
                                <path d="M24.934,-43.069C24.689,-43.069 24.488,-42.868 24.488,-42.623C24.488,-42.378 24.689,-42.177 24.934,-42.177C25.179,-42.177 25.38,-42.378 25.38,-42.623C25.379,-42.867 25.178,-43.068 24.934,-43.069Z" style="fill:rgb(45,47,144);"/>
                            </g>
                        </g>
                    </g>
                </g>
                <g transform="matrix(1,0,0,1,94.102,-36.057)">
                    <g id="Grupo_20">
                        <g id="INSTITUTO">
                            <g>
                                <rect x="1.846" y="-19.327" width="3.902" height="19.327" style="fill:rgb(45,47,144);"/>
                                <path d="M9.505,0L9.505,-19.327L13.302,-19.327L21.212,-6.42L21.212,-19.327L24.838,-19.327L24.838,0L20.922,0L13.131,-12.604L13.131,0L9.505,0Z" style="fill:rgb(45,47,144);fill-rule:nonzero;"/>
                                <path d="M27.976,-6.289L31.772,-6.658C32.001,-5.383 32.465,-4.447 33.163,-3.85C33.862,-3.252 34.805,-2.953 35.991,-2.953C37.248,-2.953 38.195,-3.219 38.832,-3.751C39.469,-4.282 39.788,-4.904 39.788,-5.616C39.788,-6.073 39.654,-6.462 39.386,-6.783C39.118,-7.104 38.65,-7.383 37.982,-7.62C37.525,-7.778 36.483,-8.06 34.857,-8.464C32.766,-8.982 31.298,-9.62 30.454,-10.375C29.268,-11.439 28.674,-12.735 28.674,-14.265C28.674,-15.249 28.953,-16.17 29.511,-17.027C30.07,-17.884 30.874,-18.536 31.924,-18.984C32.974,-19.433 34.242,-19.657 35.728,-19.657C38.153,-19.657 39.979,-19.125 41.205,-18.062C42.431,-16.998 43.075,-15.579 43.137,-13.803L39.234,-13.632C39.067,-14.625 38.709,-15.339 38.16,-15.774C37.611,-16.209 36.787,-16.427 35.688,-16.427C34.554,-16.427 33.667,-16.194 33.025,-15.728C32.612,-15.429 32.405,-15.029 32.405,-14.528C32.405,-14.071 32.599,-13.68 32.985,-13.355C33.478,-12.942 34.673,-12.511 36.571,-12.063C38.47,-11.615 39.874,-11.151 40.783,-10.672C41.693,-10.193 42.405,-9.538 42.919,-8.708C43.433,-7.877 43.69,-6.851 43.69,-5.629C43.69,-4.522 43.383,-3.485 42.768,-2.518C42.152,-1.551 41.282,-0.833 40.157,-0.363C39.032,0.108 37.63,0.343 35.952,0.343C33.508,0.343 31.632,-0.222 30.322,-1.351C29.013,-2.481 28.23,-4.126 27.976,-6.289Z" style="fill:rgb(45,47,144);fill-rule:nonzero;"/>
                                <path d="M51.324,0L51.324,-16.058L45.589,-16.058L45.589,-19.327L60.948,-19.327L60.948,-16.058L55.226,-16.058L55.226,0L51.324,0Z" style="fill:rgb(45,47,144);fill-rule:nonzero;"/>
                                <rect x="63.347" y="-19.327" width="3.902" height="19.327" style="fill:rgb(45,47,144);"/>
                                <path d="M75.318,0L75.318,-16.058L69.583,-16.058L69.583,-19.327L84.942,-19.327L84.942,-16.058L79.22,-16.058L79.22,0L75.318,0Z" style="fill:rgb(45,47,144);fill-rule:nonzero;"/>
                                <path d="M87.434,-19.327L91.336,-19.327L91.336,-8.859C91.336,-7.198 91.384,-6.122 91.481,-5.629C91.648,-4.838 92.046,-4.203 92.674,-3.724C93.302,-3.245 94.162,-3.006 95.251,-3.006C96.359,-3.006 97.194,-3.232 97.756,-3.685C98.319,-4.137 98.657,-4.693 98.771,-5.353C98.886,-6.012 98.943,-7.106 98.943,-8.635L98.943,-19.327L102.845,-19.327L102.845,-9.176C102.845,-6.855 102.74,-5.216 102.529,-4.258C102.318,-3.3 101.929,-2.492 101.362,-1.833C100.795,-1.173 100.037,-0.648 99.088,-0.257C98.139,0.134 96.899,0.33 95.37,0.33C93.524,0.33 92.125,0.116 91.171,-0.31C90.218,-0.736 89.464,-1.29 88.91,-1.971C88.356,-2.652 87.992,-3.366 87.816,-4.113C87.561,-5.221 87.434,-6.855 87.434,-9.018L87.434,-19.327Z" style="fill:rgb(45,47,144);fill-rule:nonzero;"/>
                                <path d="M111.309,0L111.309,-16.058L105.574,-16.058L105.574,-19.327L120.933,-19.327L120.933,-16.058L115.211,-16.058L115.211,0L111.309,0Z" style="fill:rgb(45,47,144);fill-rule:nonzero;"/>
                                <path d="M122.172,-9.545C122.172,-11.514 122.467,-13.166 123.056,-14.502C123.495,-15.486 124.095,-16.37 124.855,-17.152C125.615,-17.934 126.448,-18.514 127.354,-18.892C128.558,-19.402 129.946,-19.657 131.52,-19.657C134.367,-19.657 136.646,-18.773 138.355,-17.007C140.065,-15.24 140.919,-12.784 140.919,-9.637C140.919,-6.517 140.071,-4.076 138.375,-2.314C136.679,-0.552 134.411,0.33 131.572,0.33C128.698,0.33 126.413,-0.547 124.717,-2.301C123.021,-4.054 122.172,-6.469 122.172,-9.545ZM126.193,-9.677C126.193,-7.488 126.699,-5.829 127.709,-4.7C128.72,-3.571 130.003,-3.006 131.559,-3.006C133.115,-3.006 134.391,-3.566 135.389,-4.687C136.386,-5.807 136.885,-7.488 136.885,-9.729C136.885,-11.944 136.4,-13.597 135.428,-14.687C134.457,-15.776 133.167,-16.321 131.559,-16.321C129.951,-16.321 128.654,-15.77 127.67,-14.667C126.686,-13.564 126.193,-11.9 126.193,-9.677Z" style="fill:rgb(45,47,144);fill-rule:nonzero;"/>
                            </g>
                        </g>
                    </g>
                </g>
                <g transform="matrix(1,0,0,1,93.199,-0.489)">
                    <g id="Grupo_21">
                        <g id="LIZARDI">
                            <g>
                                <path d="M2.836,0L2.836,-26.269L8.184,-26.269L8.184,-4.462L21.481,-4.462L21.481,0L2.836,0Z" style="fill:rgb(45,47,144);fill-rule:nonzero;"/>
                                <rect x="25.13" y="-26.485" width="5.348" height="26.485" style="fill:rgb(45,47,144);"/>
                                <path d="M33.278,0L33.278,-4.824L47.189,-22.005L34.85,-22.005L34.85,-26.485L54.235,-26.485L54.235,-22.33L39.728,-4.462L54.795,-4.462L54.795,0L33.278,0Z" style="fill:rgb(45,47,144);fill-rule:nonzero;"/>
                                <path d="M82.058,0L76.24,0L73.928,-6.016L63.341,-6.016L61.155,0L55.482,0L65.798,-26.485L71.453,-26.485L82.058,0ZM72.211,-10.479L68.562,-20.307L64.985,-10.479L72.211,-10.479Z" style="fill:rgb(45,47,144);fill-rule:nonzero;"/>
                                <path d="M84.912,0L84.912,-26.485L96.167,-26.485C98.998,-26.485 101.054,-26.247 102.337,-25.772C103.62,-25.296 104.647,-24.45 105.417,-23.233C106.188,-22.017 106.574,-20.626 106.574,-19.06C106.574,-17.073 105.99,-15.432 104.821,-14.137C103.653,-12.842 101.907,-12.026 99.582,-11.689C100.738,-11.014 101.693,-10.274 102.446,-9.467C103.198,-8.66 104.213,-7.227 105.49,-5.167L108.724,0L102.328,0L98.462,-5.763C97.089,-7.823 96.149,-9.121 95.644,-9.656C95.138,-10.192 94.602,-10.56 94.036,-10.759C93.47,-10.957 92.572,-11.057 91.344,-11.057L90.26,-11.057L90.26,0L84.912,0ZM90.26,-15.284L94.216,-15.284C96.782,-15.284 98.384,-15.393 99.022,-15.609C99.66,-15.826 100.16,-16.2 100.521,-16.729C100.883,-17.259 101.063,-17.922 101.063,-18.717C101.063,-19.608 100.826,-20.328 100.35,-20.876C99.874,-21.424 99.203,-21.77 98.335,-21.915C97.902,-21.975 96.601,-22.005 94.433,-22.005L90.26,-22.005L90.26,-15.284Z" style="fill:rgb(45,47,144);fill-rule:nonzero;"/>
                                <path d="M111.596,-26.485L121.37,-26.485C123.574,-26.485 125.254,-26.317 126.411,-25.979C127.964,-25.522 129.295,-24.709 130.403,-23.541C131.511,-22.372 132.354,-20.942 132.933,-19.25C133.511,-17.558 133.8,-15.471 133.8,-12.99C133.8,-10.81 133.529,-8.931 132.987,-7.353C132.324,-5.426 131.379,-3.866 130.15,-2.674C129.223,-1.771 127.97,-1.066 126.393,-0.56C125.212,-0.187 123.634,0 121.659,0L111.596,0L111.596,-26.485ZM116.944,-22.005L116.944,-4.462L120.937,-4.462C122.43,-4.462 123.508,-4.547 124.17,-4.715C125.038,-4.932 125.757,-5.299 126.329,-5.817C126.901,-6.335 127.368,-7.187 127.729,-8.374C128.091,-9.56 128.271,-11.177 128.271,-13.225C128.271,-15.272 128.091,-16.844 127.729,-17.94C127.368,-19.036 126.862,-19.891 126.212,-20.505C125.562,-21.12 124.736,-21.535 123.737,-21.752C122.99,-21.921 121.527,-22.005 119.347,-22.005L116.944,-22.005Z" style="fill:rgb(45,47,144);fill-rule:nonzero;"/>
                                <rect x="138.172" y="-26.485" width="5.348" height="26.485" style="fill:rgb(45,47,144);"/>
                            </g>
                        </g>
                    </g>
                </g>
            </g>
        </g>
    </g>
</svg>
