<svg xmlns="http://www.w3.org/2000/svg" xmlns:xlink="http://www.w3.org/1999/xlink" width="230.938" height="77.568" viewBox="0 0 230.938 77.568">
  <defs>
    <clipPath id="clip-path">
      <path id="Trazado_37" data-name="Trazado 37" d="M48.66-33.739A75.081,75.081,0,0,0,44.4-44.294s-2.868-2.518-.889-3.981,4.253,1.283,4.253,1.283c9.9.221,13.3,12.235,13.3,12.235.023.1.046.2.067.3,1.9,1.058,5.071,2.9,4.608,7.521,0,0-.188,1.08-.95.863-1.4-.4-1.349-1.075-3.148-.863-1.3,12.771-14.133,16.919-14.265,16.815-2.613,8.239-5.094,4.772-5.094,4.772v-6.232s-6.69-1.472-5.7-3.63a8.454,8.454,0,0,1,8.325-.6c5.509-1.159,6.143-6.67,5.094-12.54-1.188.9-2.405,2.426-3.2,3.15-.479.435-.966-.337-.966-.337C44.85-30.377,47.148-32.741,48.66-33.739Z" transform="translate(-36.487 48.704)" fill="none" clip-rule="evenodd"/>
    </clipPath>
    <clipPath id="clip-path-2">
      <path id="Trazado_42" data-name="Trazado 42" d="M29.361-33.739A75.08,75.08,0,0,1,33.62-44.294s2.868-2.518.889-3.981-4.253,1.283-4.253,1.283c-9.9.221-13.3,12.235-13.3,12.235-.023.1-.046.2-.067.3-1.9,1.058-5.071,2.9-4.608,7.521,0,0,.188,1.08.95.863,1.4-.4,1.349-1.075,3.148-.863,1.3,12.771,14.133,16.919,14.265,16.815,2.613,8.239,5.094,4.772,5.094,4.772v-6.232s6.69-1.472,5.7-3.63a8.455,8.455,0,0,0-8.325-.6c-5.509-1.159-6.143-6.67-5.094-12.54,1.188.9,2.405,2.426,3.2,3.15.479.435.966-.337.966-.337C33.171-30.377,30.873-32.741,29.361-33.739Z" transform="translate(-12.232 48.704)" fill="none" clip-rule="evenodd"/>
    </clipPath>
  </defs>
  <g id="Grupo_22" data-name="Grupo 22" transform="translate(-1.26 64.057)">
    <path id="Trazado_3" data-name="Trazado 3" d="M39.785-49.585A19.9,19.9,0,0,1,59.678-29.691,19.9,19.9,0,0,1,39.785-9.8,19.9,19.9,0,0,1,19.891-29.691,19.9,19.9,0,0,1,39.785-49.585Z" transform="translate(3.227 2.507)" fill="#00bbf2" stroke="#00bcf1" stroke-linecap="round" stroke-linejoin="round" stroke-width="5.425" fill-rule="evenodd"/>
    <path id="Trazado_4" data-name="Trazado 4" d="M38.924-44.617A14.071,14.071,0,0,1,52.988-30.552,14.071,14.071,0,0,1,38.924-16.488,14.071,14.071,0,0,1,24.86-30.552,14.071,14.071,0,0,1,38.924-44.617Z" transform="translate(4.088 3.368)" fill="none" stroke="#2d2f90" stroke-linecap="round" stroke-linejoin="round" stroke-width="1.169"/>
    <path id="Trazado_5" data-name="Trazado 5" d="M38.04-39.514a8.082,8.082,0,0,1,8.078,8.078,8.082,8.082,0,0,1-8.078,8.078,8.082,8.082,0,0,1-8.078-8.078A8.082,8.082,0,0,1,38.04-39.514Z" transform="translate(4.972 4.252)" fill="none" stroke="#2d2f90" stroke-linecap="round" stroke-linejoin="round" stroke-width="1.169"/>
    <path id="Trazado_6" data-name="Trazado 6" d="M36.847-29.692V-49.585" transform="translate(6.165 2.507)" fill="none" stroke="#2d2f90" stroke-linecap="round" stroke-linejoin="round" stroke-width="0.779"/>
    <path id="Trazado_7" data-name="Trazado 7" d="M36.844-30.086,46.79-47.314" transform="translate(6.164 2.9)" fill="none" stroke="#2d2f90" stroke-linecap="round" stroke-linejoin="round" stroke-width="0.779"/>
    <path id="Trazado_8" data-name="Trazado 8" d="M36.841-31.164,54.069-41.11" transform="translate(6.164 3.975)" fill="none" stroke="#2d2f90" stroke-linecap="round" stroke-linejoin="round" stroke-width="0.779"/>
    <path id="Trazado_9" data-name="Trazado 9" d="M36.84-32.636H56.733" transform="translate(6.164 5.443)" fill="none" stroke="#2d2f90" stroke-linecap="round" stroke-linejoin="round" stroke-width="0.779"/>
    <path id="Trazado_10" data-name="Trazado 10" d="M36.841-32.64l17.228,9.947" transform="translate(6.164 5.443)" fill="none" stroke="#2d2f90" stroke-linecap="round" stroke-linejoin="round" stroke-width="0.779"/>
    <path id="Trazado_11" data-name="Trazado 11" d="M36.844-32.642,46.79-15.414" transform="translate(6.164 5.442)" fill="none" stroke="#2d2f90" stroke-linecap="round" stroke-linejoin="round" stroke-width="0.779"/>
    <path id="Trazado_12" data-name="Trazado 12" d="M36.847-32.643V-12.75" transform="translate(6.165 5.442)" fill="none" stroke="#2d2f90" stroke-linecap="round" stroke-linejoin="round" stroke-width="0.779"/>
    <path id="Trazado_13" data-name="Trazado 13" d="M38.319-32.642,28.373-15.414" transform="translate(4.697 5.442)" fill="none" stroke="#2d2f90" stroke-linecap="round" stroke-linejoin="round" stroke-width="0.779"/>
    <path id="Trazado_14" data-name="Trazado 14" d="M39.4-32.64,22.169-22.693" transform="translate(3.622 5.443)" fill="none" stroke="#2d2f90" stroke-linecap="round" stroke-linejoin="round" stroke-width="0.779"/>
    <path id="Trazado_15" data-name="Trazado 15" d="M39.792-32.636H19.9" transform="translate(3.229 5.443)" fill="none" stroke="#2d2f90" stroke-linecap="round" stroke-linejoin="round" stroke-width="0.779"/>
    <path id="Trazado_16" data-name="Trazado 16" d="M39.4-31.164,22.169-41.11" transform="translate(3.622 3.975)" fill="none" stroke="#2d2f90" stroke-linecap="round" stroke-linejoin="round" stroke-width="0.779"/>
    <path id="Trazado_17" data-name="Trazado 17" d="M38.319-30.086,28.373-47.314" transform="translate(4.697 2.9)" fill="none" stroke="#2d2f90" stroke-linecap="round" stroke-linejoin="round" stroke-width="0.779"/>
    <path id="Trazado_18" data-name="Trazado 18" d="M41.773-62.9A33.379,33.379,0,0,0,8.41-29.538,33.379,33.379,0,0,0,41.773,3.825,33.379,33.379,0,0,0,75.137-29.538,33.379,33.379,0,0,0,41.773-62.9Zm0,2.973a30.4,30.4,0,0,1,30.39,30.39A30.4,30.4,0,0,1,41.773.852a30.4,30.4,0,0,1-30.39-30.39A30.4,30.4,0,0,1,41.773-59.928Z" transform="translate(1.239 0.2)" fill="#2d2f90" fill-rule="evenodd"/>
    <path id="Trazado_19" data-name="Trazado 19" d="M28.428-52.416a21.724,21.724,0,0,1,10.055-2.451,21.724,21.724,0,0,1,10.054,2.451.7.7,0,0,0,.944-.3.7.7,0,0,0-.3-.944,23.119,23.119,0,0,0-10.7-2.609,23.119,23.119,0,0,0-10.7,2.609.7.7,0,0,0-.3.944A.7.7,0,0,0,28.428-52.416Z" transform="translate(4.529 1.35)" fill="#2d2f90" fill-rule="evenodd"/>
    <path id="Trazado_20" data-name="Trazado 20" d="M23.4,1.72H54.959V-9.928H23.4Z" transform="translate(3.835 9.377)" fill="#2d2f90" fill-rule="evenodd"/>
    <path id="Trazado_21" data-name="Trazado 21" d="M24.974-4.773A37.392,37.392,0,0,1,6.622-27.228a.885.885,0,0,0-1.1-.6.885.885,0,0,0-.6,1.1A39.166,39.166,0,0,0,24.146-3.21a.885.885,0,0,0,1.2-.367A.885.885,0,0,0,24.974-4.773Z" transform="translate(0.629 6.27)" fill="#2d2f90" fill-rule="evenodd"/>
    <path id="Trazado_22" data-name="Trazado 22" d="M1.521-30.372a4.232,4.232,0,0,1,4.456.978,4.232,4.232,0,0,1,.978,4.456A4.233,4.233,0,0,1,2.5-25.916,4.232,4.232,0,0,1,1.521-30.372Z" transform="translate(0 5.79)" fill="#2d2f90" fill-rule="evenodd"/>
    <path id="Trazado_23" data-name="Trazado 23" d="M2.628-23.48a4.232,4.232,0,0,1,4.557-.209,4.233,4.233,0,0,1,2.1,4.051,4.233,4.233,0,0,1-4.557.209A4.232,4.232,0,0,1,2.628-23.48Z" transform="translate(0.234 6.895)" fill="#2d2f90" fill-rule="evenodd"/>
    <path id="Trazado_24" data-name="Trazado 24" d="M5.149-17.082A4.232,4.232,0,0,1,9.5-18.463a4.232,4.232,0,0,1,3.075,3.37,4.233,4.233,0,0,1-4.348,1.382A4.233,4.233,0,0,1,5.149-17.082Z" transform="translate(0.674 7.873)" fill="#2d2f90" fill-rule="evenodd"/>
    <path id="Trazado_25" data-name="Trazado 25" d="M8.992-11.218a4.232,4.232,0,0,1,3.842-2.46,4.233,4.233,0,0,1,3.842,2.46,4.232,4.232,0,0,1-3.842,2.46A4.232,4.232,0,0,1,8.992-11.218Z" transform="translate(1.339 8.727)" fill="#2d2f90" fill-rule="evenodd"/>
    <path id="Trazado_26" data-name="Trazado 26" d="M13.682-5.981a4.232,4.232,0,0,1,3.075-3.37A4.233,4.233,0,0,1,21.1-7.97,4.233,4.233,0,0,1,18.03-4.6,4.232,4.232,0,0,1,13.682-5.981Z" transform="translate(2.152 9.452)" fill="#2d2f90" fill-rule="evenodd"/>
    <path id="Trazado_27" data-name="Trazado 27" d="M52.2-3.21A39.166,39.166,0,0,0,71.422-26.73a.885.885,0,0,0-.6-1.1.885.885,0,0,0-1.1.6A37.392,37.392,0,0,1,51.373-4.773a.885.885,0,0,0-.367,1.2A.885.885,0,0,0,52.2-3.21Z" transform="translate(8.6 6.27)" fill="#2d2f90" fill-rule="evenodd"/>
    <path id="Trazado_28" data-name="Trazado 28" d="M72.67-30.372a4.232,4.232,0,0,0-4.456.978,4.232,4.232,0,0,0-.978,4.456,4.233,4.233,0,0,0,4.456-.978A4.232,4.232,0,0,0,72.67-30.372Z" transform="translate(11.384 5.79)" fill="#2d2f90" fill-rule="evenodd"/>
    <path id="Trazado_29" data-name="Trazado 29" d="M71.671-23.48a4.232,4.232,0,0,0-4.557-.209,4.233,4.233,0,0,0-2.1,4.051,4.233,4.233,0,0,0,4.557.209A4.232,4.232,0,0,0,71.671-23.48Z" transform="translate(11.042 6.895)" fill="#2d2f90" fill-rule="evenodd"/>
    <path id="Trazado_30" data-name="Trazado 30" d="M69.258-17.082a4.232,4.232,0,0,0-4.348-1.381,4.232,4.232,0,0,0-3.075,3.37,4.233,4.233,0,0,0,4.348,1.382A4.233,4.233,0,0,0,69.258-17.082Z" transform="translate(10.494 7.873)" fill="#2d2f90" fill-rule="evenodd"/>
    <path id="Trazado_31" data-name="Trazado 31" d="M65.454-11.218a4.232,4.232,0,0,0-3.842-2.46,4.232,4.232,0,0,0-3.842,2.46,4.232,4.232,0,0,0,3.842,2.46A4.232,4.232,0,0,0,65.454-11.218Z" transform="translate(9.789 8.727)" fill="#2d2f90" fill-rule="evenodd"/>
    <path id="Trazado_32" data-name="Trazado 32" d="M60.726-5.981a4.233,4.233,0,0,0-3.075-3.37A4.233,4.233,0,0,0,53.3-7.97,4.232,4.232,0,0,0,56.378-4.6,4.232,4.232,0,0,0,60.726-5.981Z" transform="translate(9.016 9.452)" fill="#2d2f90" fill-rule="evenodd"/>
    <path id="Trazado_33" data-name="Trazado 33" d="M48.66-33.739A75.081,75.081,0,0,0,44.4-44.294s-2.868-2.518-.889-3.981,4.253,1.283,4.253,1.283c9.9.221,13.3,12.235,13.3,12.235.023.1.046.2.067.3,1.9,1.058,5.071,2.9,4.608,7.521,0,0-.188,1.08-.95.863-1.4-.4-1.349-1.075-3.148-.863-1.3,12.771-14.133,16.919-14.265,16.815-2.613,8.239-5.094,4.772-5.094,4.772v-6.232s-6.69-1.472-5.7-3.63a8.454,8.454,0,0,1,8.325-.6c5.509-1.159,6.143-6.67,5.094-12.54-1.188.9-2.405,2.426-3.2,3.15-.479.435-.966-.337-.966-.337C44.85-30.377,47.148-32.741,48.66-33.739Z" transform="translate(6.102 2.66)" fill="#2d2f90" fill-rule="evenodd"/>
    <g id="Grupo_18" data-name="Grupo 18" transform="translate(42.59 -46.044)" clip-path="url(#clip-path)">
      <path id="Trazado_34" data-name="Trazado 34" d="M47.138-47.043s-.6,1.239,1.054,2.842,3.445.613,5.151,3.254c2.059,3.187-2.243,6.786-5.151,7.333l-9-15.712C43.344-49.653,44.448-49.281,47.138-47.043Z" transform="translate(-36.019 48.578)" fill="#fff" fill-rule="evenodd"/>
      <path id="Trazado_35" data-name="Trazado 35" d="M52.567-25.789a5.32,5.32,0,0,0-3.8-5.568l-2.088,5.568-3.006,6.972S52.208-19.782,52.567-25.789Z" transform="translate(-35.243 51.709)" fill="#fff" fill-rule="evenodd"/>
      <path id="Trazado_36" data-name="Trazado 36" d="M48.892-43.069a.446.446,0,0,1,.446.446.446.446,0,0,1-.446.446.446.446,0,0,1-.446-.446A.447.447,0,0,1,48.892-43.069Z" transform="translate(-34.416 49.68)" fill="#2d2f90" fill-rule="evenodd"/>
    </g>
    <path id="Trazado_38" data-name="Trazado 38" d="M29.361-33.739A75.08,75.08,0,0,1,33.62-44.294s2.868-2.518.889-3.981-4.253,1.283-4.253,1.283c-9.9.221-13.3,12.235-13.3,12.235-.023.1-.046.2-.067.3-1.9,1.058-5.071,2.9-4.608,7.521,0,0,.188,1.08.95.863,1.4-.4,1.349-1.075,3.148-.863,1.3,12.771,14.133,16.919,14.265,16.815,2.613,8.239,5.094,4.772,5.094,4.772v-6.232s6.69-1.472,5.7-3.63a8.455,8.455,0,0,0-8.325-.6c-5.509-1.159-6.143-6.67-5.094-12.54,1.188.9,2.405,2.426,3.2,3.15.479.435.966-.337.966-.337C33.171-30.377,30.873-32.741,29.361-33.739Z" transform="translate(1.901 2.66)" fill="#2d2f90" fill-rule="evenodd"/>
    <g id="Grupo_19" data-name="Grupo 19" transform="translate(14.132 -46.044)" clip-path="url(#clip-path-2)">
      <path id="Trazado_39" data-name="Trazado 39" d="M28.726-47.043s.6,1.239-1.054,2.842-3.445.613-5.151,3.254c-2.059,3.187,2.243,6.786,5.151,7.333l9-15.712C32.52-49.653,31.416-49.281,28.726-47.043Z" transform="translate(-10.543 48.578)" fill="#fff" fill-rule="evenodd"/>
      <path id="Trazado_40" data-name="Trazado 40" d="M22.443-25.789a5.32,5.32,0,0,1,3.8-5.568l2.088,5.568,3.006,6.972S22.8-19.782,22.443-25.789Z" transform="translate(-10.465 51.709)" fill="#fff" fill-rule="evenodd"/>
      <path id="Trazado_41" data-name="Trazado 41" d="M24.934-43.069a.446.446,0,0,0-.446.446.446.446,0,0,0,.446.446.446.446,0,0,0,.446-.446A.447.447,0,0,0,24.934-43.069Z" transform="translate(-10.109 49.68)" fill="#2d2f90" fill-rule="evenodd"/>
    </g>
    <g id="Grupo_20" data-name="Grupo 20" transform="translate(94.102 -64.057)">
      <text id="INSTITUTO" transform="translate(0 28)" fill="#2d2f90" font-size="27" font-family="BrandonGrotesque-Bold, Brandon Grotesque" font-weight="700"><tspan x="0" y="0">INSTITUTO</tspan></text>
    </g>
    <g id="Grupo_21" data-name="Grupo 21" transform="translate(93.199 -39.489)">
      <text id="LIZARDI" transform="translate(0 39)" fill="#2d2f90" font-size="37" font-family="BrandonGrotesque-Bold, Brandon Grotesque" font-weight="700"><tspan x="0" y="0">LIZARDI</tspan></text>
    </g>
  </g>
</svg>
